<?xml version="1.0" encoding="utf-8"?>
<!-- Generator: Adobe Illustrator 16.0.0, SVG Export Plug-In . SVG Version: 6.00 Build 0)  -->
<!DOCTYPE svg PUBLIC "-//W3C//DTD SVG 1.1//EN" "http://www.w3.org/Graphics/SVG/1.1/DTD/svg11.dtd">
<svg version="1.1" xmlns="http://www.w3.org/2000/svg" xmlns:xlink="http://www.w3.org/1999/xlink" x="0px" y="0px"
	 width="1021.658px" height="815.837px" viewBox="0 0 1021.658 815.837" enable-background="new 0 0 1021.658 815.837"
	 xml:space="preserve">
<g id="Layer_2">
</g>
<g id="Layer_3">
	<g>
		<path fill-rule="evenodd" clip-rule="evenodd" fill="#FFFFFF" d="M599.876,693.03c-32.846,0-64.849-5.94-96.098-14.333
			c-6.227-1.673-127.048-62.894-140.569-100.33c-10.354-28.668,45.21-33.25,43.333-50.333c-1.319-12.001-13.333-23.151-21.333-37.33
			c-16.3-28.889-26.375-91.077-15-132.667c1.146-4.189,37.19,4.671,40.667-3.667c4.749-11.392-24.667-34.333-12-46.333
			c11.243-10.652,65.603,24.009,75,33c13.655,13.066,22.659,24.88,31.333,21.327c15.575-6.383,82.497-30.238,98.667-34.667
			c10.028-2.747,68.619-7.987,82-11.333c10.39-2.598,42.715-88.049,51.333-98c15.312-17.681,79.586,50.01,90.333,59
			c23.612,19.752,32.921,78.328,41.667,115c4.517,18.937,9.323,48-1.935,110.333c-2.697,14.929-34.823,79.754-40.732,85.667
			c-54.526,54.563-67.222,66.72-154,97C669.672,686.365,608.041,693.624,599.876,693.03z"/>
		<path display="none" fill-rule="evenodd" clip-rule="evenodd" fill="#333333" d="M624.324,99.55c11.72,0,23.347-0.03,35.034,1.019
			c13.66,1.225,26.68,3.41,40.056,6.418c12.193,2.741,24.347,5.706,36.102,10.061c11.851,4.39,23.695,9.081,35.041,14.666
			c11.479,5.651,22.091,12.657,33.326,18.688c10.541,5.658,19.292,14.194,29.304,20.654c10.272,6.629,19.296,15.923,27.795,24.62
			c8.694,8.897,16.978,17.827,24.563,27.708c14.548,18.944,28.898,39.406,37.99,61.69c2.208,5.414,4.823,10.607,6.973,16.042
			c2.327,5.88,4.195,11.938,6.741,17.731c2.367,5.386,3.039,11.219,4.801,16.781c1.922,6.065,3.908,11.711,5.022,18.031
			c2.28,12.93,5.845,25.628,6.516,38.807c0.324,6.356,1.298,12.478,1.215,18.857c-0.085,6.531,1.295,12.983,0.934,19.517
			c-1.457,26.381-3.349,52.764-10.125,78.442c-3.193,12.101-7.483,23.952-11.846,35.668c-4.172,11.204-9.026,22.103-14.623,32.696
			c-5.521,10.475-10.993,21.05-17.789,30.754c-3.252,4.644-6.166,9.515-9.773,13.904c-4.201,5.112-8.567,10.053-12.702,15.237
			c-15.6,19.559-34.382,37.203-54.554,52.01c-4.963,3.643-9.953,7.229-15.055,10.676c-5.128,3.464-11.109,6.111-15.965,9.876
			c-4.346,3.37-9.818,5.183-14.499,8.114c-2.277,1.426-4.928,2.354-7.383,3.427c-3.027,1.322-5.702,3.201-8.695,4.554
			c-5.011,2.267-10.282,4.156-15.346,6.351c-5.976,2.59-12.403,3.859-18.411,6.401c-5.532,2.34-11.541,3.318-17.309,4.899
			c-6.359,1.743-12.481,3.866-18.951,5.244c-6.169,1.314-12.087,3.308-18.2,4.785c-6.799,1.642-13.807,2.534-20.694,3.731
			c-13.304,2.313-26.873,4.14-40.373,4.62c-13.714,0.489-27.607,0.411-41.319-0.141c-13.425-0.54-26.955-3.347-40.219-5.398
			c-12.644-1.956-25.422-5.155-37.679-8.805c-5.878-1.751-11.517-4.214-17.407-5.958c-6.16-1.824-11.732-5.048-17.827-6.986
			c-5.393-1.714-9.958-4.857-15.155-7.008c-5.445-2.254-10.716-5.077-15.999-7.791c-10.728-5.512-20.979-12.406-31.093-18.997
			c-21.708-14.146-40.99-31.979-59.04-50.445c-8.901-9.106-16.958-19.277-24.501-29.513c-3.666-4.975-7.424-9.916-10.786-15.104
			c-1.604-2.476-3.064-5.04-4.615-7.548c-1.695-2.743-4.034-5.204-5.551-8.027c-11.546-21.496-23.042-43.39-30.146-66.849
			c-1.654-5.464-3.956-10.739-5.423-16.247c-1.654-6.208-2.661-12.545-4.436-18.729c-3.52-12.262-5.222-25.638-6.298-38.331
			c-1.058-12.477-2.797-24.672-2.809-37.224c-0.012-12.838,0.572-25.491,2.123-38.247c1.543-12.698,2.677-25.895,5.751-38.325
			c1.538-6.22,3.178-12.387,4.528-18.654c1.444-6.705,4.362-12.787,6.013-19.383c1.44-5.755,3.684-11.14,6.019-16.572
			c1.16-2.697,1.838-5.606,2.95-8.334c1.281-3.143,3.373-6.125,4.448-9.314c4.055-12.012,11.149-23.631,17.754-34.39
			c13.63-22.202,27.805-43.805,46.275-62.365c9.327-9.373,18.602-18.653,28.729-27.176c9.827-8.271,20.186-15.858,30.355-23.697
			c9.844-7.588,19.88-14.897,28.802-23.566c8.926-8.674,15.517-18.706,22.379-28.959c1.542-2.304,3.015-4.23,3.927-6.89
			c0.752-2.191,1.285-4.848,2.474-6.849c2.724-4.584,5.781-11.678,5.673-17.1c-0.05-2.474,1.306-5.414,1.791-7.85
			c0.598-3.007,1.067-6.04,1.418-9.085c0.791-6.843,1.101-12.811,0.022-19.632c-1.968-12.45-4.046-24.792-10.839-35.613
			c-6.696-10.668-14.261-20.792-24.127-28.75c-9.231-7.445-20.831-15.022-32.411-18.02c-12.187-3.155-24.574-4.216-36.981-1.876
			c-23.969,4.52-45.893,19.321-57.282,41.312c-5.664,10.934-8.78,22.418-7.712,34.816c1.012,11.751,6.153,24.308,13.557,33.479
			c7.163,8.872,17.019,16.613,27.876,20.447c5.906,2.085,12.124,1.706,18.285,1.699c6.601-0.008,12.513-1.768,18.354-4.809
			c9.837-5.119,19.12-14.123,23.033-24.686c3.56-9.609,3.556-25.523-3.691-33.577c-6.891-7.657-14.927-15.848-26.099-16.313
			c-10.81-0.451-20.359,7.634-25.489,16.392c-2.295,3.919-3.226,10.929-1.292,15.16c2.636,5.769,7.498,9.083,11.748,13.442
			c3.483,3.573,4.194,8.49,0.37,12.158c-4.921,4.721-10.75,0.972-15.383-2.288c-8.805-6.196-14.638-17.95-14.951-28.698
			c-0.353-12.1,5.936-23.804,14.831-31.579c18.049-15.775,48.573-14.54,64.424,4.229c7.476,8.852,13.156,18.451,14.597,30.173
			c1.552,12.632-0.741,24.478-7.07,35.5c-11.612,20.222-35.498,33.939-58.999,32.636c-24.083-1.336-47.362-16.102-59.379-36.951
			C283.916,14.574,279.286,3.02,278.27-9.182c-1.066-12.798,1.255-25.542,5.854-37.497c8.794-22.86,28.693-41.892,51.074-51.205
			c5.43-2.26,10.742-4.69,16.552-5.786c6.77-1.277,13.508-1.967,20.399-1.971c13.906-0.009,26.118,1.809,39.084,6.961
			c22.406,8.902,41.729,25.894,54.487,46.25c14.12,22.527,16.029,49.184,14.211,75.047c-0.438,6.229-1.376,12.47-3.509,18.363
			c-2.195,6.068-3.863,12.415-6.563,18.268c-5.217,11.31-11.17,22.122-18.937,31.919c-16.152,20.376-38.271,34.952-58.825,50.42
			c-82.73,62.257-133.128,163.376-133.579,266.754c-0.225,51.761,11.738,103.094,34.277,149.67
			c22.456,46.405,55.934,85.91,96.097,117.908c20.039,15.966,42.496,29.319,65.704,40.081c11.775,5.46,24.093,10.924,36.585,14.525
			c5.856,1.688,11.519,3.987,17.402,5.566c6.472,1.738,13.121,2.808,19.634,4.403c13.084,3.206,26.337,4.232,39.7,5.556
			c6.27,0.621,12.575,0.434,18.845,1.127c7.253,0.802,14.162,0.145,21.411-0.083c13.27-0.417,26.717-1.429,39.845-3.452
			c6.398-0.986,12.573-2.627,18.869-4.075c6.512-1.498,13.214-2.224,19.559-4.37c6.045-2.045,12.227-3.661,18.456-5.035
			c6.213-1.371,12.096-3.644,18.2-5.44c12.195-3.589,24.22-8.402,35.696-13.871c11.433-5.447,22.807-11.544,33.518-18.302
			c5.099-3.218,10.186-6.494,15.147-9.921c5.355-3.699,10.104-8.13,15.292-12.048c20.791-15.702,37.37-35.589,53.819-55.544
			c7.927-9.617,14.698-20.751,20.931-31.523c5.809-10.037,11.537-20.546,15.917-31.268c5.023-12.298,10.506-24.8,13.812-37.694
			c3.129-12.202,6.956-24.54,8.265-37.099c1.376-13.204,3.651-26.257,3.969-39.58c0.312-13.125-0.013-26.024-1.302-39.073
			c-1.312-13.273-2.954-26.922-6.324-39.844c-1.547-5.934-3.04-11.866-4.546-17.812c-1.645-6.495-4.326-12.721-6.368-19.1
			c-1.89-5.907-4.456-11.467-6.734-17.227c-2.267-5.73-4.898-11.986-7.98-17.313c-5.826-10.066-10.575-20.771-17.222-30.337
			c-7.231-10.408-14.515-20.466-22.599-30.257c-7.457-9.032-15.689-17.232-24.008-25.405c-9.373-9.212-19.735-17.489-30.244-25.357
			c-4.945-3.703-9.881-7.467-15.12-10.751c-5.166-3.238-10.578-7.092-16.063-9.726c-10.346-4.968-20.397-10.585-30.994-15.09
			c-10.765-4.576-21.587-8.943-32.752-12.455c-5.392-1.696-10.953-2.749-16.376-4.373c-6.311-1.89-12.978-3.417-19.511-4.29
			c-12.706-1.699-25.334-3.533-38.114-4.652c-26.544-2.324-54.074,1.211-80.177,6.195c-5.9,1.126-11.459,3.145-17.273,4.596
			c-6.483,1.618-12.603,3.254-18.859,5.629c-11.238,4.266-22.435,8.144-33.353,13.235c-22.91,10.682-44.496,24.397-64.185,40.233
			c-18.885,15.189-36.516,32.768-51.414,51.943c-8.183,10.532-15.5,21.52-22.617,32.786c-3.068,4.857-5.7,9.97-8.32,15.083
			c-1.383,2.7-2.446,5.511-3.617,8.303c-1.305,3.114-3.251,5.874-4.455,9.037c-2.075,5.455-4.492,10.849-6.494,16.305
			c-2.175,5.926-3.405,12.253-5.391,18.264c-4.035,12.215-5.861,25.213-7.849,37.9c-2.114,13.496-2.157,26.911-2.02,40.534
			c0.136,13.491,0.899,26.437,3.542,39.713c1.205,6.051,2.082,12.181,3.452,18.195c1.484,6.512,3.62,12.823,5.455,19.236
			c3.614,12.631,8.871,24.625,14.28,36.559c2.187,4.825,5.423,9.139,7.351,14.049c1.744,4.444,5.743,10.885,11.431,10.088
			c2.342-0.328,4.283-1.687,6.098-3.069c2.071-1.577,4.476-2.616,6.677-3.986c5.296-3.298,11.07-5.733,16.947-7.787
			c4.953-1.73,9.176-5.389,14.353-6.267c6.511-1.103,12.843-2.597,19.304-3.911c6.137-1.249,12.407-2.202,18.664-2.526
			c6.557-0.34,13.363-1.869,19.904-1.058c12.899,1.6,25.495,2.287,38.065,6.147c3.318,1.019,12.1,2.979,10.09,8.444
			c-2.027,5.51-11.74,0.676-15.257-0.347c-25.237-7.342-53.142-6.213-78.437,0.176c-12.71,3.211-25.002,7.833-36.636,13.876
			c-4.363,2.267-11.739,4.628-14.391,9.013c-3.084,5.1,1.476,10.385,4.556,14.144c3.875,4.727,7.334,9.831,11.661,14.164
			c1.688,1.691,3.703,4.502,6.067,5.219c2.716,0.824,5.612-0.679,7.846-2.071c10.553-6.576,21.475-12.463,33.255-16.578
			c12.82-4.479,25.855-7.384,39.229-9.591c5.993-0.989,12.324-0.989,18.393-1.267c4.668-0.214,15.046-2.143,17.791,3.105
			c3.387,6.477-8.883,6.332-11.89,6.182c-3.197-0.159-5.667-0.321-8.855-0.041c-3.513,0.308-6.996,0.007-10.511,0.494
			c-12.76,1.767-25.349,4.802-37.543,8.944c-5.796,1.969-11.496,4.226-17.032,6.839c-5.318,2.51-11.465,5.186-16.087,8.873
			c-5.42,4.324-2.772,8.844,1.372,12.681c5.092,4.715,10.513,9.083,15.897,13.456c4.011,3.257,9.145,9.137,14.876,8.564
			c6.098-0.61,10.771-6.462,15.309-9.952c9.844-7.571,21.167-13.528,32.51-18.51c5.587-2.454,11.31-4.604,17.157-6.356
			c3.685-1.104,12.995-5.909,15.354-0.226c2.444,5.886-5.917,7.868-9.752,8.938c-6.463,1.804-12.862,4.215-19.008,6.898
			c-11.395,4.975-22.956,11.127-32.69,18.928c-4.7,3.766-7.625,8.388-2.427,13.213c4.268,3.962,10.426,5.91,15.469,8.705
			c10.931,6.056,22.747,9.829,34.175,14.77c5.299,2.291,11.185,3.551,16.708,5.244c6.617,2.027,13.259,3.749,20.079,4.948
			c12.751,2.241,25.777,5,38.742,5.363c13.337,0.374,27.369,0.774,40.631-0.741c13-1.485,26.567-3.377,39.293-6.434
			c11.914-2.861,23.456-6.857,34.996-10.845c24.141-8.344,46.425-20.746,67.603-34.874c10.571-7.052,20.425-15.008,29.617-23.782
			c9.223-8.805,18.47-17.472,26.378-27.553c7.942-10.125,15.261-20.558,21.87-31.597c2.772-4.629,4.902-9.52,7.719-14.12
			c2.119-3.46,6.455-11.169,1.842-14.674c-3.998-3.038-12.24-0.476-16.662,0.267c-3.086,0.519-6.17,1.09-9.175,1.977
			c-3.105,0.916-6.278,2.125-9.446,0.768c-5.15-2.205-1.972-7.433,1.841-8.876c5.996-2.27,12.244-2.897,18.531-3.926
			c3.068-0.502,6.162-1.125,9.265-1.373c2.695-0.215,5.458,0.238,8.119-0.333c5.069-1.088,7.743-5.248,9.375-9.828
			c2.262-6.347,9.711-28.199-2.267-28.988c-5.305-0.35-11.399,3.11-16.202,4.994c-6.067,2.378-12.042,5.006-17.814,8.035
			c-4.574,2.4-10.022,7.752-15.327,7.723c-6.144-0.033-4.192-6.976-0.509-9.303c10.535-6.656,21.472-12,33.193-16.209
			c5.662-2.033,11.32-4.138,17.194-5.486c4.669-1.071,7.659-5.022,7.654-9.778c-0.006-6.351,0.033-12.701-0.035-19.051
			c-0.064-6.026-2.26-10.729-8.896-10.278c-5.674,0.386-11.41,4.018-16.483,6.345c-6.158,2.825-12.118,5.831-17.849,9.455
			c-5.195,3.286-10.325,6.712-15.026,10.687c-4.498,3.802-9.506,7.184-12.827,12.157c-2.034,3.047-8.331,8.41-11.654,3.941
			c-3.248-4.369,4.759-10.432,7.341-13.021c17.867-17.919,39.503-30.192,63.268-38.583c4.079-1.44,8.325-3.407,9.172-8.098
			c1.111-6.156-1.189-13.198-2.591-19.144c-2.973-12.608-5.722-25.015-9.375-37.447c-14.108-48.021-41.496-93.957-85.714-119.886
			c-4.609-2.703-9.45-5.771-14.366-7.863c-4.243-1.805-7.224-0.828-10.187,2.581c-7.255,8.346-11.682,18.27-17.638,27.5
			c-3.123,4.842-5.01,10.733-7.566,15.916c-2.802,5.681-4.472,12.113-6.311,18.166c-1.687,5.55-4.346,11.825-3.6,17.695
			c0.247,1.946-2.487,4.334-3.66,5.533c-5.314,5.435-11.753,10.271-18.479,13.814c-4.717,2.485-8.83,2.415-14.049,2.615
			c-5.547,0.213-11.094,0.387-16.641,0.574c-13.523,0.457-26.856,4.259-40.114,6.656c-12.624,2.283-25.44,5.973-37.582,10.129
			c-11.525,3.943-23.063,8.08-34.291,12.803c-5.358,2.254-10.725,5.279-15.892,7.974c-3.986,2.078-8.086,5.443-12.62,6.112
			c-6.925,1.022-14.61,0.061-21.349-1.64c-2.671-0.674-5.688-1.514-7.833-3.336c-1.158-0.984-1.561-2.443-2.494-3.614
			c-2.119-2.658-4.838-4.982-7.229-7.396c-8.7-8.78-18.167-16.792-28.439-23.694c-4.906-3.296-9.985-6.488-15.162-9.343
			c-2.526-1.394-5.181-2.463-7.762-3.736c-2.796-1.379-5.2-3.627-8.181-4.587c-4.138-1.333-10.555-1.708-12.971,2.592
			c-1.367,2.431-3.071,4.644-4.67,6.921c-1.853,2.64-3.04,5.628-4.851,8.264c-6.76,9.841-10.547,21.454-14.347,32.635
			c-3.974,11.692-7.204,24.651-7.322,37.125c-0.125,13.158,0.178,25.884,2.104,38.925c0.842,5.698,1.523,11.407,3.543,16.824
			c2.311,6.199,3.655,12.894,6.574,18.832c5.156,10.489,10.043,21.063,17.188,30.432c2.307,3.025,4.227,6.349,6.361,9.495
			c2.254,3.325,5.955,6.611,5.545,11.009c-0.207,2.207-1.735,4.445-3.544,5.678c-2.325,1.585-4.716,0.492-6.99-0.556
			c-4.586-2.114-6.829-5.588-9.656-9.516c-5.498-7.637-11.12-15.455-15.457-23.825c-5.387-10.397-10.61-21.674-13.672-33.041
			c-3.32-12.322-6.77-25.253-7.339-38.045c-1.183-26.566,1.063-53.524,11.038-78.441c2.226-5.558,4.424-11.02,7.272-16.255
			c1.313-2.415,2.45-4.918,3.706-7.363c1.467-2.857,3.552-5.355,4.957-8.196c2.297-4.644,5.794-9.466,9.033-13.501
			c3.303-4.115,7.547-9.982,13.256-9.888c5.784,0.095,10.858,3.215,15.958,5.611c5.994,2.815,11.955,5.675,17.846,8.702
			c9.964,5.12,19.326,11.616,28.143,18.563c9.486,7.475,18.682,15.816,26.419,25.14c3.195,3.851,6.29,7.415,11.818,6.112
			c5.492-1.295,9.391-6.033,14.766-7.738c2.722-0.863,5.297-2.901,7.898-4.131c2.793-1.321,5.648-2.506,8.495-3.706
			c6.269-2.642,12.553-5.023,18.883-7.486c5.874-2.286,11.431-4.458,17.583-5.911c6.063-1.433,11.624-4.292,17.739-5.667
			c12.618-2.837,25.007-6.297,37.855-7.847c12.894-1.556,25.776-4.478,38.723-5.25c5.59-0.333,11.878,1.055,17.318-0.496
			c5.311-1.514,6.547-6.711,7.691-11.465c1.361-5.653,2.007-11.517,3.604-17.102c1.8-6.294,4.424-12.458,6.666-18.603
			c2.001-5.483,5.731-10.328,7.406-15.881c1.72-5.707,5.946-10.172,8.125-15.669c3.597-4.978,6.913-10.15,10.468-15.158
			c3.07-4.326,6.597-10.529,11.839-12.476c5.032-1.869,9.818,0.979,14.238,3.068c5.932,2.804,11.932,5.272,17.565,8.669
			c11.062,6.671,21.455,13.829,31.133,22.425c18.74,16.643,35.065,37.161,45.745,59.881c5.335,11.35,10.444,22.836,14.625,34.679
			c4.354,12.331,7.354,25.03,10.849,37.607c1.693,6.093,2.467,12.484,3.441,18.722c0.774,4.961,0.686,12.62,4.538,16.391
			c2.787,2.727,8.513,3.232,12.044,1.923c2.736-1.015,6.574-0.558,9.483-0.82c3.766-0.339,7.541-0.706,11.327-0.618
			c2.792,0.065,12.392,1.608,8.903,6.708c-3.27,4.781-12.866,2.629-17.717,2.794c-9.373,0.318-24.208,0.021-23.364,12.85
			c0.428,6.504,0.415,12.976,0.549,19.485c0.123,5.974,2.632,10.9,9.267,10.917c3.567,0.008,35.05-3.438,28.512,6.615
			c-3.284,5.05-11.063,2.18-15.81,2.051c-3.157-0.086-6.195,0.679-9.333,0.767c-2.812,0.079-5.608-0.014-8.189,1.285
			c-4.139,2.083-5.228,6.287-5.715,10.538c-0.781,6.813-2.376,13.296-3.76,19.989c-0.923,4.469-2.002,9.805,2.724,12.436
			c4.931,2.745,11.682,2.373,17.109,3.475c3.905,0.792,12.727,2.334,10.862,8.229c-1.799,5.691-12.652,1.432-16.323,0.568
			c-5.133-1.208-11.683-2.887-16.885-1.238c-5.223,1.655-5.939,7.489-7.993,11.845c-4.955,10.515-9.782,20.805-15.743,30.812
			c-12.51,21.002-28.406,38.988-45.604,56.264c-18.358,18.441-40.555,32.666-63.034,45.424
			c-10.299,5.846-21.368,11.708-32.697,15.274c-5.248,1.652-10.154,4.357-15.491,5.975c-6.283,1.905-12.456,4.394-18.827,5.971
			c-12.807,3.171-25.976,6.988-39.141,8.219c-13.176,1.232-26.366,2.625-39.596,3.082c-5.978,0.207-11.77-0.762-17.683-0.813
			c-7.001-0.062-14.163-0.863-21.12-1.638c-12.984-1.447-25.25-4.458-37.93-7.424c-25.257-5.91-49.827-16.485-72.251-29.436
			c-43.678-25.225-79.736-62.623-105.938-105.542c-6.522-10.684-12.647-22.213-16.76-34.05c-1.856-5.341-4.661-10.158-6.339-15.593
			c-1.816-5.884-4.114-11.614-5.737-17.555c-3.332-12.198-6.524-24.681-8.101-37.227c-1.618-12.874-2.531-25.71-2.483-38.685
			c0.047-13.032,0.176-25.787,1.258-38.731c1.129-13.519,4.079-26.31,7.031-39.503c1.345-6.01,2.937-11.755,5.052-17.542
			c2.088-5.714,3.512-11.762,5.894-17.346c4.641-10.879,8.947-22.666,15.272-32.732c2.838-4.517,5.043-9.36,8.004-13.881
			c1.386-2.117,2.513-4.304,3.697-6.53c1.312-2.464,3.652-4.705,5.145-7.167c6.448-10.634,15.219-20.049,23.4-29.341
			c17.315-19.665,36.698-36.623,57.595-52.403c13.146-9.927,27.187-18.112,41.813-25.698c14.8-7.676,30.771-15.022,46.866-19.396
			c7.867-2.138,15.466-5.059,23.443-6.816c8.568-1.888,17.273-3.927,25.93-5.335c8.689-1.414,17.378-1.767,26.094-2.781
			C607.547,99.226,615.934,99.902,624.324,99.55C631.721,99.55,617.03,99.856,624.324,99.55z"/>
		<path fill-rule="evenodd" clip-rule="evenodd" fill="#B79E9D" d="M668.741,632.36c2.84,0.258,5.491-0.186,8.066-1.129
			c5.05-1.849,9.057-5.247,12.914-8.827c1.548-1.437,2.377-3.414,2.957-5.399c0.728-2.492-1.124-4.796-3.745-4.948
			c-1.344-0.078-2.508,0.257-3.473,1.244c-1.224,1.252-2.333,2.605-3.494,3.906c-4.003,4.487-8.874,7.3-15.146,6.315
			c-2.333-0.366-4.638-1.127-6.849-1.981c-1.7-0.657-3.368-0.957-5.13-0.716c-1.563,0.214-2.589,1.218-3.099,2.65
			c-0.424,1.19,0.201,2.149,1.005,3c1.32,1.396,2.659,2.778,4.519,3.449C661.008,631.272,664.703,632.864,668.741,632.36z"/>
		<path fill-rule="evenodd" clip-rule="evenodd" fill="#333333" d="M669.741,632.36c-4.038,0.504-7.733-1.088-11.475-2.436
			c-1.86-0.67-3.199-2.052-4.519-3.449c-0.804-0.851-1.429-1.81-1.005-3c0.51-1.432,1.537-2.437,3.099-2.65
			c1.762-0.241,3.43,0.059,5.13,0.716c2.211,0.854,4.516,1.615,6.849,1.981c6.272,0.985,11.143-1.829,15.146-6.315
			c1.161-1.301,2.27-2.654,3.494-3.906c0.964-0.987,2.128-1.322,3.473-1.244c2.621,0.152,4.473,2.457,3.745,4.948
			c-0.58,1.985-1.409,3.962-2.957,5.399c-3.856,3.581-7.864,6.978-12.914,8.827C675.232,632.174,672.582,632.618,669.741,632.36z"/>
		<g>
			<path fill-rule="evenodd" clip-rule="evenodd" fill="#B79E9D" d="M657.669,563.911c2.646,0.463,5.344-0.348,7.974-1.69
				c1.724-0.881,3.323-1.877,4.735-3.216c1.853-1.757,3.765-3.426,5.922-4.85c2.522-1.664,2.885-5.667,5.222-7.593
				c5.383-4.436,7.759-12.035,11.534-17.723c3.269-4.926,5.081-8.083,7.751-13.335c1.327-2.609,1.027-5.154-1.15-7.476
				c-2.016-2.15-1.244-2.901-4.012-3.824c-2.403-0.801-4.837-1.598-7.455-1.618c-2.551-0.02-5.067-0.338-7.596-0.865
				c-2.635-0.549-5.394-0.539-8.113-0.147c-1.416,0.204-2.861,0.417-4.279,0.344c-4.033-0.204-7.937,0.544-11.85,1.325
				c-2.188,0.436-4.429,0.648-6.582,1.207c-5.093,1.323-10.247,2.392-15.23,4.168c-8.038,2.864-15.398,6.975-22.541,11.562
				c-2.845,1.828-5.392,3.991-7.778,6.356c-3.684,3.652-3.837,6.519-0.119,10.307c3.005,3.063,6.293,5.867,9.606,8.604
				c5.593,4.621,12.222,7.54,18.539,10.967c3.391,1.84,6.978,3.149,10.68,4.179c2.767,0.77,5.578,1.407,8.291,2.333
				C653.231,563.615,655.255,563.854,657.669,563.911z"/>
			<path fill-rule="evenodd" clip-rule="evenodd" fill="#333333" d="M657.669,563.911c-2.414-0.058-4.438-0.296-6.45-0.983
				c-2.713-0.926-5.524-1.563-8.291-2.333c-3.702-1.03-7.289-2.339-10.68-4.179c-6.317-3.427-12.946-6.346-18.539-10.967
				c-3.313-2.737-6.602-5.542-9.606-8.604c-3.718-3.789-3.564-6.655,0.119-10.307c2.386-2.365,4.933-4.528,7.778-6.356
				c7.142-4.587,14.503-8.697,22.541-11.562c4.983-1.776,10.137-2.846,15.23-4.168c2.153-0.559,4.394-0.771,6.582-1.207
				c3.913-0.781,7.816-1.529,11.85-1.325c1.417,0.072,2.863-0.14,4.279-0.344c2.719-0.392,5.478-0.402,8.113,0.147
				c2.529,0.527,5.045,0.846,7.596,0.865c2.617,0.02,4.082-0.213,6.485,0.588c2.768,0.923,2.966,2.703,4.982,4.853
				c2.178,2.322,2.477,4.866,1.15,7.476c-2.671,5.252-4.482,8.409-7.751,13.335c-3.775,5.688-6.151,13.287-11.534,17.723
				c-2.337,1.926-2.7,5.929-5.222,7.593c-2.157,1.424-4.069,3.093-5.922,4.85c-1.413,1.339-3.011,2.335-4.735,3.216
				C663.013,563.563,660.315,564.374,657.669,563.911z M655.043,554.453c2.91,0.26,5.42-0.543,7.435-2.65
				c4.627-4.839,9.893-9.053,13.993-14.408c3.485-4.552,6.9-9.152,9.785-14.114c0.631-1.087,0.997-2.346,1.371-3.56
				c0.345-1.119,0.163-2.203-0.585-3.167c-1.731-2.23-3.708-3.691-6.813-3.672c-5.73,0.034-11.432-0.176-17.181,0.391
				c-5.379,0.53-10.759,1.087-16.084,1.919c-9.59,1.5-18.24,5.648-26.583,10.414c-4.314,2.464-5.002,7.128-1.891,11.022
				c1.624,2.031,3.68,3.563,5.861,4.878c8.638,5.209,17.703,9.499,27.42,12.313C652.834,554.126,653.951,554.246,655.043,554.453z"
				/>
			<path fill-rule="evenodd" clip-rule="evenodd" fill="#B79E9D" d="M655.043,554.453c-1.092-0.207-2.209-0.326-3.271-0.634
				c-9.718-2.814-18.783-7.103-27.42-12.313c-2.181-1.315-4.238-2.847-5.861-4.878c-3.112-3.895-2.423-8.559,1.891-11.022
				c8.342-4.766,16.992-8.914,26.583-10.414c5.325-0.833,10.705-1.389,16.084-1.919c5.749-0.567,11.45-0.357,17.181-0.391
				c3.106-0.019,5.082,1.442,6.813,3.672c0.748,0.963,0.93,2.048,0.585,3.167c-0.375,1.214-0.74,2.473-1.371,3.56
				c-2.884,4.962-6.299,9.563-9.785,14.114c-4.101,5.355-9.366,9.569-13.993,14.408
				C660.463,553.909,657.953,554.713,655.043,554.453z M646.27,545.504c0.298,0.009,0.457,0.015,0.617,0.019
				c0.159,0.003,0.32,0.019,0.478,0.005c0.765-0.063,1.68,0.124,2.008-0.853c0.315-0.934-0.334-1.54-1.01-1.927
				c-2.212-1.268-4.497-2.408-6.706-3.679c-3.246-1.866-5.901-4.259-7.045-8.015c-0.368-1.211-0.896-2.42-1.929-3.249
				c-0.473-0.379-1.137-0.883-1.633-0.806c-2.484,0.386-5.086,0.51-6.854,2.796c-1.218,1.576-1.417,3.243-0.226,4.779
				c0.985,1.27,2.116,2.432,3.654,3.002c4.204,1.561,7.987,3.954,11.973,5.947C641.738,544.595,643.942,545.517,646.27,545.504z"/>
			<path fill-rule="evenodd" clip-rule="evenodd" fill="#FFFFFF" d="M646.27,545.504c-2.327,0.012-4.531-0.91-6.673-1.98
				c-3.985-1.993-7.769-4.386-11.973-5.947c-1.539-0.57-2.669-1.733-3.654-3.002c-1.191-1.536-0.992-3.203,0.226-4.779
				c1.768-2.286,4.369-2.41,6.854-2.796c0.496-0.077,1.161,0.427,1.633,0.806c1.033,0.828,1.561,2.038,1.929,3.249
				c1.144,3.756,3.799,6.149,7.045,8.015c2.209,1.271,4.494,2.411,6.706,3.679c0.676,0.387,1.325,0.993,1.01,1.927
				c-0.328,0.977-1.243,0.791-2.008,0.853c-0.158,0.014-0.319-0.002-0.478-0.005C646.727,545.519,646.567,545.514,646.27,545.504z"
				/>
		</g>
	</g>
	<path fill-rule="evenodd" clip-rule="evenodd" fill="#333333" d="M954.801,411.322c0.083-6.379-0.891-12.501-1.215-18.857
		c-0.671-13.179-4.235-25.877-6.516-38.807c-1.114-6.32-3.1-11.966-5.022-18.031c-1.762-5.562-2.434-11.395-4.801-16.781
		c-2.546-5.793-4.415-11.851-6.741-17.731c-2.15-5.434-4.764-10.627-6.973-16.042c-9.092-22.284-23.442-42.746-37.99-61.69
		c-7.585-9.88-15.869-18.81-24.563-27.708c-8.499-8.697-17.523-17.991-27.795-24.62c-10.011-6.46-18.763-14.996-29.304-20.654
		c-11.235-6.03-21.847-13.037-33.326-18.688c-11.345-5.585-23.19-10.276-35.041-14.666c-11.755-4.355-23.909-7.32-36.102-10.061
		c-13.376-3.008-26.396-5.193-40.056-6.418c-11.688-1.048-23.314-1.019-35.034-1.019c7.396,0-7.294,0.306,0,0
		c-8.391,0.352-16.777-0.325-25.148,0.649c-8.715,1.014-17.405,1.368-26.094,2.781c-8.657,1.408-17.362,3.448-25.93,5.335
		c-7.977,1.757-15.576,4.679-23.443,6.816c-16.094,4.374-32.066,11.719-46.866,19.396c-14.626,7.586-28.666,15.771-41.813,25.698
		c-20.896,15.78-40.279,32.738-57.595,52.403c-8.181,9.292-16.952,18.707-23.4,29.341c-1.493,2.461-3.833,4.702-5.145,7.167
		c-1.185,2.226-2.312,4.413-3.697,6.53c-2.961,4.521-5.166,9.364-8.004,13.881c-6.325,10.066-10.631,21.853-15.272,32.732
		c-2.382,5.584-3.806,11.632-5.894,17.346c-2.115,5.787-3.707,11.531-5.052,17.542c-2.952,13.193-5.902,25.984-7.031,39.503
		c-1.082,12.945-1.21,25.7-1.258,38.731c-0.047,12.975,0.865,25.811,2.483,38.685c1.576,12.546,4.769,25.028,8.101,37.227
		c1.623,5.941,3.921,11.671,5.737,17.555c1.678,5.435,4.482,10.252,6.339,15.593c4.112,11.836,10.237,23.366,16.76,34.05
		c26.203,42.919,62.261,80.317,105.938,105.542c22.424,12.951,46.994,23.525,72.251,29.436c12.68,2.967,24.946,5.978,37.93,7.424
		c6.957,0.775,14.119,1.577,21.12,1.638c5.913,0.051,11.705,1.021,17.683,0.813c13.229-0.457,26.42-1.849,39.596-3.082
		c13.165-1.231,26.334-5.048,39.141-8.219c6.371-1.577,12.544-4.066,18.827-5.971c5.337-1.618,10.243-4.323,15.491-5.975
		c11.329-3.566,22.397-9.428,32.697-15.274c22.479-12.758,44.676-26.983,63.034-45.424c17.197-17.276,33.093-35.262,45.604-56.264
		c5.961-10.007,10.788-20.297,15.743-30.812c2.054-4.356,2.77-10.19,7.993-11.845c5.202-1.648,11.752,0.03,16.885,1.238
		c3.67,0.864,14.523,5.123,16.323-0.568c1.864-5.895-6.958-7.436-10.862-8.229c-5.428-1.102-12.179-0.73-17.109-3.475
		c-4.726-2.631-3.647-7.967-2.724-12.436c1.384-6.693,2.979-13.176,3.76-19.989c0.488-4.251,1.577-8.455,5.715-10.538
		c2.581-1.299,5.378-1.207,8.189-1.285c3.138-0.087,6.176-0.853,9.333-0.767c4.746,0.129,12.526,2.999,15.81-2.051
		c6.538-10.053-24.944-6.606-28.512-6.615c-6.635-0.016-9.144-4.943-9.267-10.917c-0.134-6.51-0.121-12.981-0.549-19.485
		c-0.843-12.828,13.991-12.531,23.364-12.85c4.851-0.165,14.447,1.987,17.717-2.794c3.489-5.1-6.111-6.643-8.903-6.708
		c-3.786-0.088-7.562,0.278-11.327,0.618c-2.909,0.262-6.747-0.195-9.483,0.82c-3.532,1.31-9.257,0.804-12.044-1.923
		c-3.853-3.771-3.764-11.429-4.538-16.391c-0.974-6.238-1.749-12.629-3.441-18.722c-3.494-12.578-6.495-25.276-10.849-37.607
		c-4.182-11.843-9.291-23.329-14.625-34.679c-10.679-22.72-27.004-43.238-45.745-59.881c-9.679-8.596-20.071-15.754-31.133-22.425
		c-5.633-3.397-11.633-5.866-17.565-8.669c-4.42-2.09-9.206-4.938-14.238-3.068c-5.242,1.947-8.769,8.15-11.839,12.476
		c-3.555,5.007-6.871,10.18-10.468,15.158c-2.179,5.497-6.405,9.962-8.125,15.669c-1.674,5.553-5.405,10.397-7.406,15.881
		c-2.242,6.145-4.866,12.309-6.666,18.603c-1.597,5.585-2.243,11.449-3.604,17.102c-1.145,4.754-2.381,9.951-7.691,11.465
		c-5.44,1.551-11.729,0.162-17.318,0.496c-12.947,0.772-25.829,3.694-38.723,5.25c-12.849,1.55-25.237,5.01-37.855,7.847
		c-6.116,1.375-11.676,4.235-17.739,5.667c-6.153,1.453-11.71,3.625-17.583,5.911c-6.331,2.463-12.615,4.845-18.883,7.486
		c-2.847,1.2-5.702,2.385-8.495,3.706c-2.601,1.229-5.176,3.268-7.898,4.131c-5.375,1.705-9.274,6.443-14.766,7.738
		c-5.528,1.303-8.623-2.261-11.818-6.112c-7.737-9.324-16.933-17.666-26.419-25.14c-8.816-6.947-18.179-13.443-28.143-18.563
		c-5.891-3.026-11.852-5.886-17.846-8.702c-5.1-2.396-10.174-5.516-15.958-5.611c-5.709-0.094-9.953,5.773-13.256,9.888
		c-3.239,4.036-8.142,11.699-10.438,16.342c-1.405,2.841,21.042,25.521,19.574,28.378c-1.255,2.444-33.441-0.861-35.666,4.697
		c-9.976,24.917-10.659,47.774-9.477,74.34c0.569,12.792,4.019,25.723,7.339,38.045c3.063,11.367,8.285,22.643,13.672,33.041
		c4.336,8.371,9.959,16.188,15.457,23.825c2.828,3.928,5.07,7.402,9.656,9.516c2.274,1.048,4.666,2.142,6.99,0.556
		c1.809-1.233,3.337-3.472,3.544-5.678c0.41-4.398-3.291-7.685-5.545-11.009c-2.134-3.146-4.054-6.47-6.361-9.495
		c-7.145-9.37-12.033-19.943-17.188-30.432c-2.919-5.938-4.263-12.633-6.574-18.832c-2.02-5.417-2.701-11.126-3.543-16.824
		c-1.926-13.041-2.229-25.767-2.104-38.925c0.118-12.475,2.137-21.739,6.11-33.432c3.8-11.181,35.168-1.022,41.929-10.863
		c1.811-2.636-16.891-31.333-17.5-34.5c-0.716-3.72-0.716-3.72,0.651-6.151c2.417-4.3,8.833-3.925,12.971-2.592
		c2.98,0.959,5.385,3.208,8.181,4.587c2.581,1.273,5.236,2.343,7.762,3.736c5.176,2.855,10.255,6.047,15.162,9.343
		c10.272,6.901,19.739,14.914,28.439,23.694c2.392,2.414,5.11,4.738,7.229,7.396c0.933,1.17,1.336,2.63,2.494,3.614
		c2.146,1.823,5.162,2.663,7.833,3.336c6.739,1.7,14.424,2.662,21.349,1.64c4.534-0.669,8.634-4.034,12.62-6.112
		c5.167-2.694,10.534-5.72,15.892-7.974c11.227-4.723,22.766-8.859,34.291-12.803c12.142-4.156,24.958-7.847,37.582-10.129
		c13.258-2.397,26.591-6.2,40.114-6.656c5.547-0.187,11.094-0.361,16.641-0.574c5.219-0.2,9.332-0.13,14.049-2.615
		c6.726-3.543,13.164-8.38,18.479-13.814c1.173-1.199,3.907-3.587,3.66-5.533c-0.746-5.87,1.914-12.145,3.6-17.695
		c1.839-6.053,3.509-12.485,6.311-18.166c2.556-5.182,4.443-11.074,7.566-15.916c5.956-9.23,10.383-19.154,17.638-27.5
		c2.963-3.409,5.944-4.386,10.187-2.581c4.917,2.092,9.757,5.16,14.366,7.863c44.218,25.929,71.605,71.865,85.714,119.886
		c3.652,12.432,6.401,24.839,9.375,37.447c1.402,5.946,3.703,12.987,2.591,19.144c-0.847,4.691-5.093,6.658-9.172,8.098
		c-23.764,8.391-45.4,20.663-63.268,38.583c-2.582,2.589-10.589,8.652-7.341,13.021c3.323,4.469,9.62-0.894,11.654-3.941
		c3.321-4.974,8.33-8.355,12.827-12.157c4.701-3.975,9.831-7.401,15.026-10.687c5.731-3.624,11.69-6.63,17.849-9.455
		c5.073-2.327,10.81-5.959,16.483-6.345c6.636-0.451,8.832,4.252,8.896,10.278c0.067,6.35,0.028,12.701,0.035,19.051
		c0.005,4.756-2.985,8.708-7.654,9.778c-5.875,1.348-11.532,3.453-17.194,5.486c-11.722,4.209-22.658,9.553-33.193,16.209
		c-3.684,2.327-5.635,9.27,0.509,9.303c5.305,0.029,10.753-5.323,15.327-7.723c5.772-3.029,11.748-5.656,17.814-8.035
		c4.803-1.883,10.897-5.343,16.202-4.994c11.978,0.79,4.528,22.641,2.267,28.988c-1.632,4.581-4.306,8.74-9.375,9.828
		c-2.66,0.571-5.423,0.118-8.119,0.333c-3.103,0.248-6.196,0.871-9.265,1.373c-6.287,1.029-12.535,1.657-18.531,3.926
		c-3.813,1.444-6.991,6.671-1.841,8.876c3.168,1.356,6.341,0.148,9.446-0.768c3.005-0.886,6.089-1.458,9.175-1.977
		c4.422-0.743,12.664-3.305,16.662-0.267c4.613,3.505,0.277,11.214-1.842,14.674c-2.816,4.6-4.947,9.49-7.719,14.12
		c-6.609,11.039-13.928,21.472-21.87,31.597c-7.908,10.082-17.155,18.749-26.378,27.553c-9.192,8.774-19.045,16.73-29.617,23.782
		c-21.178,14.128-43.462,26.53-67.603,34.874c-11.54,3.988-23.082,7.984-34.996,10.845c-12.726,3.057-26.293,4.948-39.293,6.434
		c-13.262,1.516-27.294,1.115-40.631,0.741c-12.965-0.363-25.991-3.122-38.742-5.363c-6.819-1.199-13.462-2.921-20.079-4.948
		c-5.524-1.692-11.41-2.953-16.708-5.244c-11.429-4.941-23.244-8.714-34.175-14.77c-5.043-2.795-11.202-4.743-15.469-8.705
		c-5.198-4.826-2.273-9.447,2.427-13.213c9.734-7.8,21.295-13.953,32.69-18.928c6.146-2.683,12.544-5.094,19.008-6.898
		c3.835-1.071,12.196-3.053,9.752-8.938c-2.359-5.683-11.669-0.877-15.354,0.226c-5.847,1.752-11.569,3.902-17.157,6.356
		c-11.343,4.982-22.667,10.939-32.51,18.51c-4.537,3.49-9.21,9.342-15.309,9.952c-5.731,0.573-10.865-5.308-14.876-8.564
		c-5.384-4.373-10.806-8.741-15.897-13.456c-4.144-3.837-6.792-8.356-1.372-12.681c4.622-3.687,10.769-6.363,16.087-8.873
		c5.536-2.613,11.236-4.871,17.032-6.839c12.194-4.142,24.783-7.177,37.543-8.944c3.516-0.487,6.999-0.186,10.511-0.494
		c3.188-0.28,5.658-0.118,8.855,0.041c3.007,0.15,15.277,0.295,11.89-6.182c-2.745-5.249-13.122-3.319-17.791-3.105
		c-6.068,0.277-12.4,0.277-18.393,1.267c-13.374,2.207-26.409,5.111-39.229,9.591c-11.78,4.115-22.702,10.002-33.255,16.578
		c-2.234,1.393-5.13,2.895-7.846,2.071c-2.364-0.717-4.378-3.527-6.067-5.219c-4.326-4.333-7.786-9.437-11.661-14.164
		c-3.081-3.759-7.64-9.044-4.556-14.144c2.651-4.385,10.027-6.746,14.391-9.013c11.634-6.043,23.926-10.665,36.636-13.876
		c25.295-6.389,53.2-7.518,78.437-0.176c3.517,1.023,13.229,5.857,15.257,0.347c2.01-5.465-6.771-7.425-10.09-8.444
		c-12.57-3.861-25.166-4.548-38.065-6.147c-6.541-0.811-13.348,0.718-19.904,1.058c-6.257,0.324-12.527,1.278-18.664,2.526
		c-6.461,1.314-12.793,2.808-19.304,3.911c-5.177,0.878-9.399,4.536-14.353,6.267c-5.877,2.054-11.651,4.489-16.947,7.787
		c-2.201,1.371-4.605,2.409-6.677,3.986c-1.815,1.382-3.756,2.741-6.098,3.069c-5.688,0.797-9.687-5.645-11.431-10.088
		c-1.928-4.91-5.164-9.224-7.351-14.049c-5.41-11.934-10.666-23.927-14.28-36.559c-1.835-6.414-3.971-12.725-5.455-19.236
		c-1.37-6.015-2.247-12.145-3.452-18.195c-2.644-13.276-3.406-26.223-3.542-39.713c-0.137-13.623-0.094-27.038,2.02-40.534
		c1.987-12.687,3.814-25.686,7.849-37.9c1.985-6.01,3.215-12.337,5.391-18.264c2.002-5.456,4.418-10.85,6.494-16.305
		c1.204-3.163,3.15-5.923,4.455-9.037c1.17-2.792,2.233-5.604,3.617-8.303c2.621-5.113,5.252-10.225,8.32-15.083
		c7.117-11.267,14.434-22.254,22.617-32.786c14.897-19.175,32.529-36.753,51.414-51.943c19.688-15.836,41.275-29.551,64.185-40.233
		c10.918-5.091,22.115-8.969,33.353-13.235c6.256-2.375,12.376-4.011,18.859-5.629c5.814-1.452,11.373-3.47,17.273-4.596
		c26.103-4.984,53.633-8.52,80.177-6.195c12.78,1.119,25.408,2.954,38.114,4.652c6.533,0.874,13.2,2.4,19.511,4.29
		c5.423,1.624,10.984,2.676,16.376,4.373c11.165,3.512,21.987,7.879,32.752,12.455c10.596,4.505,20.647,10.122,30.994,15.09
		c5.486,2.634,10.898,6.488,16.063,9.726c5.239,3.284,10.174,7.048,15.12,10.751c10.509,7.869,20.871,16.145,30.244,25.357
		c8.319,8.173,16.551,16.374,24.008,25.405c8.084,9.791,15.367,19.849,22.599,30.257c6.647,9.566,11.396,20.271,17.222,30.337
		c3.082,5.327,5.713,11.583,7.98,17.313c2.278,5.76,4.844,11.319,6.734,17.227c2.042,6.379,4.724,12.605,6.368,19.1
		c1.506,5.946,2.999,11.878,4.546,17.812c3.37,12.922,5.012,26.571,6.324,39.844c1.29,13.049,1.614,25.949,1.302,39.073
		c-0.317,13.323-2.593,26.376-3.969,39.58c-1.309,12.559-5.136,24.896-8.265,37.099c-3.306,12.894-8.788,25.396-13.812,37.694
		c-4.38,10.722-10.108,21.231-15.917,31.268c-6.233,10.771-13.004,21.906-20.931,31.523c-16.449,19.955-33.028,39.842-53.819,55.544
		c-5.188,3.918-9.937,8.35-15.292,12.048c-4.961,3.427-10.048,6.703-15.147,9.921c-10.711,6.758-22.084,12.855-33.518,18.302
		c-11.476,5.468-23.501,10.281-35.696,13.871c-6.104,1.796-11.986,4.069-18.2,5.44c-6.229,1.374-12.411,2.99-18.456,5.035
		c-6.345,2.146-13.047,2.872-19.559,4.37c-6.296,1.448-12.471,3.089-18.869,4.075c-13.128,2.023-26.575,3.035-39.845,3.452
		c-7.249,0.228-14.158,0.885-21.411,0.083c-6.27-0.693-12.575-0.506-18.845-1.127c-13.363-1.323-26.616-2.35-39.7-5.556
		c-6.514-1.595-13.162-2.665-19.634-4.403c-5.883-1.58-11.545-3.878-17.402-5.566c-12.492-3.601-24.81-9.064-36.585-14.525
		c-23.208-10.762-45.665-24.115-65.704-40.081c-40.163-31.998-73.641-71.503-96.097-117.908
		c-22.539-46.577-33.254-106.31-34.277-149.67c-0.856-36.323,15.023-82.973,8.534-120.655c-1.094-6.353-3.421-12.499-5.103-18.729
		c-1.634-6.05-4.445-11.701-7.66-17.054c-13.348-22.229-30.202-42.968-54.69-53.321c-22.128-9.355-47.702-12.189-71.162-6.628
		c-13.576,3.217-24.622,8.734-36.008,16.718c-5.643,3.956-10.766,8.387-15.578,13.316c-4.131,4.23-7.088,9.268-10.239,14.234
		c-12.99,20.468-18.373,47.471-12.463,71.241c3.091,12.431,8.499,24.201,16.714,34.072c7.832,9.412,18.252,16.22,29.18,21.325
		c21.803,10.185,49.341,8.925,69.834-3.795c19.998-12.413,31.694-37.351,29.606-60.576c-1.138-12.659-6.055-23.677-14.573-33.134
		c-7.904-8.775-18.063-13.379-29.265-16.341c-23.749-6.281-49.461,10.217-55.196,33.492c-2.826,11.471-1.264,24.665,5.967,34.374
		c6.422,8.624,17.942,14.906,28.709,14.931c5.664,0.013,12.59-0.26,13.912-6.95c1.028-5.199-2.374-8.819-7.276-9.747
		c-5.982-1.133-11.865-1.059-17.334-4.272c-4.011-2.356-7.27-8.631-7.638-13.159c-0.822-10.116,2.361-22.216,11.475-28.047
		c9.419-6.028,20.7-3.927,30.736-1.608c10.556,2.439,19.688,15.473,22.284,25.386c2.854,10.896,0.415,23.597-4.706,33.433
		c-3.042,5.841-6.874,10.674-12.276,14.467c-5.043,3.541-9.918,7.417-15.952,9.098c-11.092,3.088-23.605,2.4-34.563-0.758
		c-11.325-3.265-22.739-10.601-30.31-19.646c-7.986-9.542-12.021-20.737-13.654-32.942c-3.284-24.546,6.183-49.247,23.224-66.698
		c8.821-9.034,19.576-15.271,31.368-19.677c11.205-4.187,25.053-4.634,36.885-3.832c12.646,0.859,24.65,4.812,36.255,9.709
		c11.771,4.966,20.554,13.885,29.308,22.953c4.796,4.969,7.966,10.035,11.243,16.093c1.459,2.696,13.435,18.086,14.886,47.898
		c0.436,8.946,0.423,17.732-0.353,26.547c-0.544,2.164-1.092,4.327-1.628,6.497c-3.074,12.43-4.208,25.627-5.751,38.325
		c-1.551,12.756-2.135,25.409-2.123,38.247c0.012,12.552,1.751,24.748,2.809,37.224c1.077,12.693,2.778,26.068,6.298,38.331
		c1.775,6.183,2.782,12.52,4.436,18.729c1.467,5.508,3.769,10.783,5.423,16.247c7.105,23.459,18.601,45.353,30.146,66.849
		c1.517,2.823,3.855,5.284,5.551,8.027c1.551,2.508,3.012,5.072,4.615,7.548c3.361,5.189,7.12,10.13,10.786,15.104
		c7.543,10.236,15.6,20.407,24.501,29.513c18.049,18.466,37.332,36.299,59.04,50.445c10.114,6.591,20.365,13.484,31.093,18.997
		c5.283,2.714,10.554,5.537,15.999,7.791c5.197,2.151,9.762,5.293,15.155,7.008c6.095,1.938,11.667,5.163,17.827,6.986
		c5.89,1.744,11.528,4.207,17.407,5.958c12.257,3.65,25.036,6.85,37.679,8.805c13.264,2.051,26.794,4.858,40.219,5.398
		c13.712,0.552,27.605,0.629,41.319,0.141c13.5-0.48,27.069-2.308,40.373-4.62c6.888-1.198,13.896-2.089,20.694-3.731
		c6.113-1.477,12.031-3.471,18.2-4.785c6.47-1.377,12.592-3.501,18.951-5.244c5.768-1.581,11.777-2.559,17.309-4.899
		c6.008-2.542,12.436-3.811,18.411-6.401c5.063-2.195,10.334-4.084,15.346-6.351c2.993-1.354,5.668-3.232,8.695-4.554
		c2.456-1.073,5.106-2.001,7.383-3.427c4.681-2.931,10.153-4.744,14.499-8.114c4.855-3.765,10.837-6.412,15.965-9.876
		c5.102-3.447,10.092-7.033,15.055-10.676c20.172-14.807,38.954-32.451,54.554-52.01c4.135-5.185,8.501-10.125,12.702-15.237
		c3.607-4.389,6.521-9.26,9.773-13.904c6.796-9.704,12.269-20.279,17.789-30.754c5.597-10.594,10.451-21.492,14.623-32.696
		c4.362-11.716,8.652-23.567,11.846-35.668c6.776-25.678,8.668-52.062,10.125-78.442
		C956.096,424.306,954.715,417.854,954.801,411.322z"/>
	<path fill-rule="evenodd" clip-rule="evenodd" fill="#333333" d="M397.209,303.703c27.302-4.418,101,59,101,59l21-4l41.121-11.408
		l-40.121,60.408l-80,55l-28.724,61.812l-14.276-3.812l-35.287-99l12.287-64l38-8C412.209,349.703,369.907,308.122,397.209,303.703z
		"/>
	<path fill-rule="evenodd" clip-rule="evenodd" fill="#333333" d="M639.74,322.712c0,0,25.344,21.991,35.406,21.991
		c10.063,0,54.063-3,64.063,0s18,28,30,38s99,16,99,16l-22-90l-53-70l-41.611-30l-26.389,20l-22,54l-14.444,31.527L639.74,322.712z"
		/>
	<g>
		<circle fill-rule="evenodd" clip-rule="evenodd" fill="#333333" cx="710.215" cy="425.191" r="29.5"/>
		<circle fill-rule="evenodd" clip-rule="evenodd" fill="#FFFFFF" cx="714.511" cy="430.724" r="12.909"/>
		<circle fill-rule="evenodd" clip-rule="evenodd" fill="#FFFFFF" cx="724.654" cy="412.461" r="6.455"/>
	</g>
	<circle fill-rule="evenodd" clip-rule="evenodd" fill="#333333" cx="558.897" cy="456.66" r="29.5"/>
	<circle fill-rule="evenodd" clip-rule="evenodd" fill="#FFFFFF" cx="563.261" cy="462.281" r="13.116"/>
	<circle fill-rule="evenodd" clip-rule="evenodd" fill="#FFFFFF" cx="573.566" cy="443.727" r="6.558"/>
	<path fill-rule="evenodd" clip-rule="evenodd" fill="#B79E9D" d="M731.008,309.326c0.157,3.09,1.901,5.859,4.284,8.394
		c1.563,1.662,3.235,3.149,5.279,4.327c2.681,1.544,15.421,6.7,18.444,8.735c6.965,4.688,17.01,5.08,25.077,7.602
		c6.987,2.183,11.387,3.266,18.613,4.685c3.59,0.704,6.652-0.386,8.92-3.506c2.103-2.888,3.242-2.25,3.621-5.612
		c0.328-2.92,0.642-5.872-0.054-8.798c-0.679-2.851-0.978-5.753-1.023-8.731c-0.046-3.103-0.819-6.177-2.052-9.094
		c-0.642-1.518-1.303-3.069-1.604-4.671c-0.859-4.561-2.858-8.692-4.901-12.825c-1.141-2.312-2.021-4.749-3.305-6.984
		c-3.037-5.289-5.778-10.721-9.346-15.752c-5.752-8.116-12.859-15.105-20.494-21.71c-3.042-2.631-6.417-4.83-9.997-6.788
		c-5.526-3.024-9.111-2.344-12.77,2.93c-2.957,4.263-5.516,8.764-7.986,13.273c-4.17,7.612-5.951,15.875-8.447,23.94
		c-1.34,4.33-1.969,8.722-2.223,13.157c-0.189,3.315-0.202,6.641-0.599,9.943C730.151,304.288,730.414,306.616,731.008,309.326z"/>
	<path fill-rule="evenodd" clip-rule="evenodd" fill="#B79E9D" d="M467.451,398.779c1.65-2.433,1.913-5.53,1.558-8.817
		c-0.234-2.155-0.649-4.24-1.526-6.303c-1.149-2.706-18.972-30.772-23.645-37.302c-4.048-5.655-6.764-8.996-11.43-14.208
		c-2.319-2.591-5.264-3.515-8.771-2.449c-3.248,0.986-3.747-0.15-5.958,2.182c-1.92,2.025-3.849,4.084-4.995,6.701
		c-1.118,2.55-2.553,4.921-4.223,7.206c-1.741,2.378-2.916,5.153-3.651,8.071c-0.383,1.518-0.77,3.074-1.458,4.46
		c-1.96,3.95-2.809,8.227-3.627,12.531c-0.458,2.406-1.187,4.757-1.493,7.187c-0.725,5.749-1.757,11.438-1.933,17.294
		c-0.284,9.447,1.102,18.816,3.11,28.194c0.8,3.737,2.1,7.337,3.693,10.87c2.459,5.458,5.567,6.994,11.359,5.09
		c4.683-1.54,9.201-3.487,13.654-5.492c7.521-3.386,13.602-8.63,20.111-13.317c3.495-2.515,6.486-5.484,9.218-8.702
		c2.041-2.406,3.955-4.919,6.146-7.196C465.216,403.09,466.35,401.174,467.451,398.779z"/>
</g>
</svg>
